<svg width="1023" height="197" viewBox="0 0 1023 197" fill="none" xmlns="http://www.w3.org/2000/svg">
<path d="M127.266 0H171.562L83.0859 70.8984L171.562 168.047H131.367L60.2344 89.4141L31.6406 112.383V168.047H0V0H31.6406V76.6406L127.266 0Z" fill="#9BC4E2" fill-opacity="0.38"/>
<path d="M469.045 168.047H253.772V0H285.413V141.562H345.647V0H377.288V141.562H437.405V0H469.045V168.047Z" fill="#9BC4E2" fill-opacity="0.38"/>
<path d="M579.497 141.562C583.325 135.781 586.645 129.336 589.458 122.227C592.348 115.039 594.809 107.617 596.841 99.9609C598.872 92.2266 600.552 84.4141 601.88 76.5234C603.208 68.5547 604.263 60.8594 605.044 53.4375C606.919 36.0938 607.739 18.2812 607.505 0H745.552V141.562H766.997V196.758H735.356V168.047H588.872V196.758H557.231V141.562H579.497ZM713.911 141.562V26.4844H637.153C636.919 30.625 636.645 35.5078 636.333 41.1328C636.02 46.7578 635.552 52.8125 634.927 59.2969C634.38 65.7812 633.598 72.5781 632.583 79.6875C631.645 86.7188 630.356 93.8281 628.716 101.016C627.153 108.125 625.2 115.156 622.856 122.109C620.591 128.984 617.856 135.469 614.653 141.562H713.911Z" fill="#9BC4E2" fill-opacity="0.38"/>
<path d="M941.433 136.641C938.23 141.953 935.144 146.68 932.175 150.82C929.284 154.883 926.198 158.32 922.917 161.133C919.636 163.945 916.003 166.133 912.019 167.695C908.034 169.18 903.425 170.078 898.191 170.391C894.987 170.547 891.784 170.508 888.581 170.273C885.378 170.039 882.292 169.609 879.323 168.984C876.433 168.438 873.737 167.734 871.237 166.875C868.816 165.938 866.745 164.922 865.027 163.828L876.159 140.391C878.034 141.25 880.3 142.109 882.956 142.969C885.691 143.828 888.855 144.141 892.448 143.906C894.558 143.75 896.433 143.398 898.073 142.852C899.714 142.227 901.277 141.211 902.761 139.805C904.323 138.398 905.886 136.562 907.448 134.297C909.089 131.953 910.964 128.984 913.073 125.391L916.941 118.828L844.519 0H879.675L933.23 91.0547L986.902 0H1022.06L941.433 136.641Z" fill="#9BC4E2" fill-opacity="0.38"/>
</svg>
