<svg width="107" height="78" viewBox="0 0 107 78" fill="none" xmlns="http://www.w3.org/2000/svg">
<path fill-rule="evenodd" clip-rule="evenodd" d="M11.0354 30.9179L53.4588 6.30083L95.892 30.9179L94.3034 33.6673L53.4588 9.96678L12.6045 33.6673L11.0354 30.9179Z" fill="#9BC4E2"/>
<path d="M10.4297 61.2151H11.0453V63.8774H10.4297V61.2151ZM14.8019 63.0531L15.7152 61.2151H16.5047V63.8774H15.889V62.1693L15.0404 63.8774H14.5633L13.7147 62.1693V63.8774H13.099V61.2151H13.8885L14.8019 63.0531ZM21.0396 62.2733V62.7913H19.1537V63.3408H21.1376V63.8774H18.538V61.2151H21.1191V61.7516H19.1537V62.2733H21.0396ZM25.3489 61.2151H25.9646V63.8774H25.3489V62.7876H23.7496V63.8774H23.134V61.2151H23.7496V62.251H25.3489V61.2151ZM28.0182 61.2151H28.6339V63.8774H28.0182V61.2151ZM33.8616 62.5463C33.8616 62.6601 33.8825 62.7696 33.9245 62.8748C33.9664 62.9789 34.0324 63.071 34.1223 63.1515C34.2135 63.2307 34.3307 63.2945 34.4736 63.3427C34.6178 63.3909 34.7917 63.4151 34.995 63.4151C35.122 63.4151 35.2397 63.404 35.3482 63.3817C35.4566 63.3594 35.5509 63.3346 35.6311 63.3074C35.7247 63.2752 35.8098 63.2387 35.8862 63.1979L36.1802 63.6305C36.1063 63.6911 36.0126 63.745 35.8992 63.792C35.851 63.8118 35.7962 63.8315 35.7346 63.8514C35.673 63.87 35.6046 63.8866 35.5294 63.9015C35.4554 63.9164 35.3734 63.9281 35.2835 63.9368C35.1947 63.9467 35.0986 63.9517 34.995 63.9517C34.6943 63.9517 34.4329 63.9145 34.2111 63.8402C33.9904 63.7647 33.8068 63.6633 33.6601 63.5357C33.5146 63.4071 33.4062 63.258 33.3347 63.0884C33.2631 62.9176 33.2274 62.7368 33.2274 62.5463C33.2274 62.3556 33.2631 62.1755 33.3347 62.0059C33.4062 61.8352 33.5146 61.686 33.6601 61.5586C33.8068 61.4298 33.9904 61.3284 34.2111 61.2541C34.4329 61.1786 34.6943 61.1409 34.995 61.1409C35.0986 61.1409 35.1947 61.1458 35.2835 61.1556C35.3734 61.1643 35.4554 61.1767 35.5294 61.1928C35.6046 61.2077 35.673 61.225 35.7346 61.2448C35.7962 61.2634 35.851 61.2825 35.8992 61.3023C36.0126 61.3493 36.1063 61.4026 36.1802 61.462L35.8862 61.8946C35.8098 61.8549 35.7247 61.8191 35.6311 61.7869C35.5509 61.7597 35.4566 61.7349 35.3482 61.7126C35.2397 61.6892 35.122 61.6774 34.995 61.6774C34.7917 61.6774 34.6178 61.7015 34.4736 61.7498C34.3307 61.798 34.2135 61.8624 34.1223 61.9428C34.0324 62.0221 33.9664 62.1142 33.9245 62.2195C33.8825 62.3247 33.8616 62.4336 33.8616 62.5463ZM40.606 62.2733V62.7913H38.72V63.3408H40.704V63.8774H38.1043V61.2151H40.6855V61.7516H38.72V62.2733H40.606ZM43.3159 61.7516V62.5425H44.4235C44.5726 62.5425 44.6836 62.5078 44.7563 62.4385C44.829 62.3692 44.8653 62.2721 44.8653 62.147C44.8653 62.0221 44.829 61.9249 44.7563 61.8556C44.6836 61.7863 44.5726 61.7516 44.4235 61.7516H43.3159ZM42.7002 63.8774V61.2151H44.4235C44.5874 61.2151 44.7348 61.2361 44.8653 61.2782C44.9972 61.319 45.1094 61.3791 45.2019 61.4583C45.2943 61.5375 45.3652 61.6353 45.4145 61.7516C45.4638 61.8668 45.4885 61.9985 45.4885 62.147C45.4885 62.2956 45.4638 62.4281 45.4145 62.5443C45.3652 62.6595 45.2943 62.7566 45.2019 62.8359C45.1094 62.9151 44.9972 62.9757 44.8653 63.0178C44.7348 63.0586 44.5874 63.079 44.4235 63.079H43.3159V63.8774H42.7002ZM50.077 61.2151V61.7516H48.1004V63.8774H47.4847V61.2151H50.077ZM52.0178 61.2151H52.6335V63.8774H52.0178V61.2151ZM56.7709 63.8774V62.9603H55.7928L55.2621 63.8774H54.5762L55.153 62.8804C54.9768 62.821 54.8406 62.7288 54.7444 62.6037C54.6495 62.4775 54.602 62.3148 54.602 62.1155C54.602 61.9979 54.6224 61.8853 54.663 61.7776C54.7049 61.6687 54.7684 61.5728 54.8534 61.4898C54.9386 61.4057 55.0464 61.3388 55.177 61.2894C55.3089 61.2398 55.4648 61.2151 55.6449 61.2151H57.3865V63.8774H56.7709ZM55.6449 61.7516C55.5647 61.7516 55.4975 61.7615 55.4433 61.7814C55.3903 61.8012 55.3471 61.8278 55.3139 61.8611C55.2819 61.8946 55.2591 61.9336 55.2454 61.9781C55.2319 62.0215 55.2251 62.0672 55.2251 62.1155C55.2251 62.1638 55.2319 62.2102 55.2454 62.2547C55.2591 62.298 55.2819 62.3364 55.3139 62.3699C55.3471 62.4033 55.3903 62.4299 55.4433 62.4497C55.4975 62.4695 55.5647 62.4794 55.6449 62.4794H56.7709V61.7516H55.6449ZM64.2117 61.2151H64.8274V63.8774H64.2117V62.7876H62.6124V63.8774H61.9967V61.2151H62.6124V62.251H64.2117V61.2151ZM69.7339 63.8774H69.1182V61.9428L67.6465 63.8774H66.8625V61.2151H67.4783V63.1496L68.95 61.2151H69.7339V63.8774ZM73.7215 63.8774H73.1059V62.9156C73.0207 62.9342 72.9425 62.9627 72.871 63.0011C72.8008 63.0382 72.7366 63.0809 72.6787 63.1292C72.622 63.1774 72.5709 63.2295 72.5252 63.2851C72.4809 63.3408 72.4415 63.3966 72.407 63.4522C72.3268 63.5822 72.2639 63.7239 72.2183 63.8774H71.6026C71.647 63.6732 71.7246 63.4795 71.8356 63.2963C71.8825 63.2183 71.9385 63.1391 72.0038 63.0586C72.0692 62.9769 72.1462 62.899 72.2349 62.8247C72.3238 62.7504 72.4248 62.6824 72.5382 62.6205C72.6529 62.5574 72.7816 62.5048 72.9247 62.4627C72.826 62.4281 72.7391 62.3884 72.6639 62.3439C72.5899 62.298 72.5222 62.2517 72.4605 62.2046C72.399 62.1576 72.341 62.1112 72.2868 62.0654C72.2338 62.0196 72.1789 61.9788 72.1222 61.9428C72.0667 61.9058 72.0069 61.8753 71.9428 61.8519C71.88 61.8284 71.8078 61.8154 71.7265 61.8129V61.2151C71.8386 61.2151 71.9379 61.2286 72.0242 61.2559C72.1104 61.2832 72.1894 61.319 72.2608 61.3636C72.3323 61.4082 72.399 61.4595 72.4605 61.5177C72.5234 61.5746 72.5869 61.6334 72.6509 61.694C72.7163 61.7535 72.7853 61.8122 72.858 61.8705C72.9308 61.9286 73.0134 61.9813 73.1059 62.0283V61.2151H73.7215V62.0283C73.814 61.9813 73.8965 61.9286 73.9692 61.8705C74.042 61.8122 74.1104 61.7535 74.1745 61.694C74.2398 61.6334 74.3033 61.5746 74.365 61.5177C74.4278 61.4595 74.495 61.4082 74.5664 61.3636C74.638 61.319 74.7168 61.2832 74.8032 61.2559C74.8895 61.2286 74.9887 61.2151 75.1008 61.2151V61.8129C75.0195 61.8154 74.9467 61.8284 74.8827 61.8519C74.8198 61.8753 74.76 61.9058 74.7033 61.9428C74.6478 61.9788 74.593 62.0196 74.5387 62.0654C74.4857 62.1112 74.4284 62.1576 74.3668 62.2046C74.3052 62.2517 74.2368 62.298 74.1616 62.3439C74.0876 62.3884 74.0014 62.4281 73.9027 62.4627C74.0457 62.5048 74.1739 62.5574 74.2873 62.6205C74.4007 62.6824 74.5017 62.7504 74.5906 62.8247C74.6793 62.899 74.7563 62.9769 74.8217 63.0586C74.8882 63.1391 74.9449 63.2183 74.9917 63.2963C75.1014 63.4795 75.1791 63.6732 75.2247 63.8774H74.6091C74.5634 63.7239 74.5005 63.5822 74.4204 63.4522C74.3859 63.3966 74.3458 63.3408 74.3003 63.2851C74.2558 63.2295 74.2048 63.1774 74.1468 63.1292C74.0901 63.0809 74.026 63.0382 73.9545 63.0011C73.8842 62.9627 73.8066 62.9342 73.7215 62.9156V63.8774ZM79.3084 61.2151H79.9241V63.8774H79.3084V62.7876H77.7091V63.8774H77.0934V61.2151H77.7091V62.251H79.3084V61.2151ZM83.6529 63.9517C83.3521 63.9517 83.0908 63.9145 82.8689 63.8402C82.6484 63.7647 82.4646 63.6633 82.3179 63.5357C82.1725 63.4071 82.064 63.258 81.9925 63.0884C81.9211 62.9176 81.8853 62.7368 81.8853 62.5463C81.8853 62.3556 81.9211 62.1755 81.9925 62.0059C82.064 61.8352 82.1725 61.686 82.3179 61.5586C82.4646 61.4298 82.6484 61.3284 82.8689 61.2541C83.0908 61.1786 83.3521 61.1409 83.6529 61.1409C83.9537 61.1409 84.2144 61.1786 84.435 61.2541C84.6569 61.3284 84.8406 61.4298 84.986 61.5586C85.1327 61.686 85.2418 61.8352 85.3133 62.0059C85.3848 62.1755 85.4205 62.3556 85.4205 62.5463C85.4205 62.7368 85.3848 62.9176 85.3133 63.0884C85.2418 63.258 85.1327 63.4071 84.986 63.5357C84.8406 63.6633 84.6569 63.7647 84.435 63.8402C84.2144 63.9145 83.9537 63.9517 83.6529 63.9517ZM83.6529 63.4151C83.8563 63.4151 84.0295 63.3909 84.1724 63.3427C84.3166 63.2945 84.4338 63.2307 84.5237 63.1515C84.615 63.071 84.6816 62.9789 84.7234 62.8748C84.7654 62.7696 84.7863 62.6601 84.7863 62.5463C84.7863 62.4336 84.7654 62.3247 84.7234 62.2195C84.6816 62.1142 84.615 62.0221 84.5237 61.9428C84.4338 61.8624 84.3166 61.798 84.1724 61.7498C84.0295 61.7015 83.8563 61.6774 83.6529 61.6774C83.4495 61.6774 83.2757 61.7015 83.1315 61.7498C82.9885 61.798 82.8714 61.8624 82.7802 61.9428C82.6902 62.0221 82.6243 62.1142 82.5824 62.2195C82.5405 62.3247 82.5195 62.4336 82.5195 62.5463C82.5195 62.6601 82.5405 62.7696 82.5824 62.8748C82.6243 62.9789 82.6902 63.071 82.7802 63.1515C82.8714 63.2307 82.9885 63.2945 83.1315 63.3427C83.2757 63.3909 83.4495 63.4151 83.6529 63.4151ZM89.9721 61.2151V61.7516H87.9955V63.8774H87.3798V61.2151H89.9721ZM93.5288 63.9517C93.228 63.9517 92.9668 63.9145 92.7449 63.8402C92.5243 63.7647 92.3406 63.6633 92.1939 63.5357C92.0484 63.4071 91.9399 63.258 91.8684 63.0884C91.797 62.9176 91.7612 62.7368 91.7612 62.5463C91.7612 62.3556 91.797 62.1755 91.8684 62.0059C91.9399 61.8352 92.0484 61.686 92.1939 61.5586C92.3406 61.4298 92.5243 61.3284 92.7449 61.2541C92.9668 61.1786 93.228 61.1409 93.5288 61.1409C93.8296 61.1409 94.0903 61.1786 94.3109 61.2541C94.5328 61.3284 94.7165 61.4298 94.8619 61.5586C95.0086 61.686 95.1177 61.8352 95.1892 62.0059C95.2607 62.1755 95.2964 62.3556 95.2964 62.5463C95.2964 62.7368 95.2607 62.9176 95.1892 63.0884C95.1177 63.258 95.0086 63.4071 94.8619 63.5357C94.7165 63.6633 94.5328 63.7647 94.3109 63.8402C94.0903 63.9145 93.8296 63.9517 93.5288 63.9517ZM93.5288 63.4151C93.7322 63.4151 93.9054 63.3909 94.0483 63.3427C94.1926 63.2945 94.3097 63.2307 94.3996 63.1515C94.4909 63.071 94.5575 62.9789 94.5993 62.8748C94.6413 62.7696 94.6622 62.6601 94.6622 62.5463C94.6622 62.4336 94.6413 62.3247 94.5993 62.2195C94.5575 62.1142 94.4909 62.0221 94.3996 61.9428C94.3097 61.8624 94.1926 61.798 94.0483 61.7498C93.9054 61.7015 93.7322 61.6774 93.5288 61.6774C93.3254 61.6774 93.1517 61.7015 93.0074 61.7498C92.8644 61.798 92.7474 61.8624 92.6562 61.9428C92.5661 62.0221 92.5002 62.1142 92.4583 62.2195C92.4164 62.3247 92.3954 62.4336 92.3954 62.5463C92.3954 62.6601 92.4164 62.7696 92.4583 62.8748C92.5002 62.9789 92.5661 63.071 92.6562 63.1515C92.7474 63.2307 92.8644 63.2945 93.0074 63.3427C93.1517 63.3909 93.3254 63.4151 93.5288 63.4151Z" fill="white"/>
<path d="M12.278 39.1924H16.8353L10.6628 44.3145L16.9177 51.0586H12.6571L8.25637 46.3087L6.96252 47.3846V51.0586H3.47656V39.1924H6.96252V43.6029L12.278 39.1924ZM36.8594 39.1924H40.3453V48.1459H43.3203V39.1924H46.8063V51.0586H30.3984V39.1924H33.8844V48.1459H36.8594V39.1924ZM62.4297 48.1459C62.6055 47.7982 62.7594 47.4038 62.8911 46.9625C63.023 46.5211 63.1356 46.0578 63.229 45.5723C63.3225 45.0868 63.3994 44.5931 63.4598 44.0911C63.5258 43.5891 63.5806 43.1009 63.6247 42.6264C63.718 41.5176 63.7675 40.3729 63.773 39.1924H74.9561V48.1459H76.5878V53.0859H73.1018V51.0586H64.185V53.0859H60.6991V48.1459H62.4297ZM71.4701 48.1459V42.1051H67.1765C67.1765 42.3754 67.1683 42.6844 67.1518 43.0319C67.1353 43.374 67.1106 43.7325 67.0777 44.1077C67.0447 44.4773 67.0007 44.8551 66.9458 45.2413C66.8908 45.6275 66.8276 45.9999 66.7562 46.3584C66.6848 46.7115 66.6024 47.0425 66.509 47.3514C66.4156 47.6604 66.3112 47.9251 66.1958 48.1459H71.4701ZM99.0183 48.5099C98.7765 48.9402 98.5211 49.3318 98.2519 49.6849C97.9881 50.038 97.675 50.3414 97.3124 50.5952C96.9497 50.8489 96.5213 51.0448 96.0267 51.1828C95.5323 51.3206 94.939 51.3896 94.2467 51.3896C93.7578 51.3896 93.3237 51.3676 92.9446 51.3234C92.571 51.2792 92.2524 51.2296 91.9886 51.1744C91.6865 51.1138 91.42 51.0393 91.1892 50.951L92.4172 48.2864C92.5161 48.3251 92.626 48.3583 92.7468 48.3857C92.8457 48.4133 92.9611 48.4355 93.0929 48.452C93.2303 48.4685 93.3704 48.4768 93.5133 48.4768C93.678 48.4768 93.8154 48.4547 93.9252 48.4106C94.0407 48.3665 94.1368 48.3086 94.2137 48.2368C94.2961 48.1596 94.3648 48.0741 94.4198 47.9803C94.4748 47.881 94.5269 47.7762 94.5763 47.6659L89.7306 39.1924H93.6863L96.958 45.1006L100.238 39.1924H104.194L99.0183 48.5099Z" fill="white"/>
<path d="M10.125 57.341H96.5586V58.5234H10.125V57.341Z" fill="white"/>
</svg>
